<svg id="visual" viewBox="0 0 960 540" width="960" height="540" xmlns="http://www.w3.org/2000/svg" xmlns:xlink="http://www.w3.org/1999/xlink" version="1.1"><rect x="0" y="0" width="960" height="540" fill="#001220"></rect><defs><linearGradient id="grad1_0" x1="43.8%" y1="100%" x2="100%" y2="0%"><stop offset="14.444444444444446%" stop-color="#001220" stop-opacity="1"></stop><stop offset="85.55555555555554%" stop-color="#001220" stop-opacity="1"></stop></linearGradient></defs><defs><linearGradient id="grad2_0" x1="0%" y1="100%" x2="56.3%" y2="0%"><stop offset="14.444444444444446%" stop-color="#001220" stop-opacity="1"></stop><stop offset="85.55555555555554%" stop-color="#001220" stop-opacity="1"></stop></linearGradient></defs><g transform="translate(960, 540)"><path d="M-540 0C-535.4 -25.4 -530.8 -50.8 -524.6 -75.4C-518.5 -100.1 -510.8 -123.9 -502.8 -147.6C-494.8 -171.3 -486.4 -194.8 -477.6 -218.1C-468.7 -241.4 -459.3 -264.5 -449.2 -288.7C-439.2 -312.9 -428.4 -338.3 -408.1 -353.6C-387.8 -368.9 -357.9 -374.1 -337.3 -389.2C-316.6 -404.4 -305.3 -429.5 -287.6 -447.5C-269.9 -465.6 -245.8 -476.6 -221.4 -484.8C-197.1 -493.1 -172.5 -498.6 -148.2 -504.7C-123.9 -510.8 -99.9 -517.6 -75.3 -523.6C-50.6 -529.6 -25.3 -534.8 0 -540L0 0Z" fill="#715df2"></path></g><g transform="translate(0, 0)"><path d="M540 0C537.8 25.7 535.6 51.3 529.6 76.1C523.5 100.9 513.6 124.9 502.8 147.6C492 170.4 480.4 191.9 473 216C465.6 240.2 462.5 267 452.6 290.9C442.7 314.8 425.9 335.8 405.1 351C384.2 366.2 359.3 375.6 341.2 393.7C323 411.9 311.7 439 291.9 454.3C272.2 469.6 244.2 473.2 218.9 479.4C193.6 485.5 171.1 494.3 147.9 503.7C124.7 513.2 100.9 523.4 76.1 529.6C51.4 535.7 25.7 537.9 0 540L0 0Z" fill="#715df2"></path></g></svg>